<!DOCTYPE svg PUBLIC "-//W3C//DTD SVG 1.1//EN" "http://www.w3.org/Graphics/SVG/1.1/DTD/svg11.dtd">
<!-- Uploaded to: SVG Repo, www.svgrepo.com, Transformed by: SVG Repo Mixer Tools -->
<svg fill="#000000" width="256px" height="256px" viewBox="0 0 24 24" id="call" data-name="Line Color" xmlns="http://www.w3.org/2000/svg" class="icon line-color" stroke="#000000">
<g id="SVGRepo_bgCarrier" stroke-width="0"/>
<g id="SVGRepo_tracerCarrier" stroke-linecap="round" stroke-linejoin="round"/>
<g id="SVGRepo_iconCarrier">
<path id="secondary" d="M12,7a5,5,0,0,1,5,5" style="fill: none; stroke: #5dc0fd; stroke-linecap: round; stroke-linejoin: round; stroke-width:1.7759999999999998;"/>
<path id="secondary-2" data-name="secondary" d="M11,3.06A8.26,8.26,0,0,1,12,3a9,9,0,0,1,9,9,8.26,8.26,0,0,1-.06,1" style="fill: none; stroke: #5dc0fd; stroke-linecap: round; stroke-linejoin: round; stroke-width:1.7759999999999998;"/>
<path id="primary" d="M15,21a13.21,13.21,0,0,1-4.34-1.91l1.82-2.61a2,2,0,0,1,2.68-.51c.33.21.67.4,1,.59A2,2,0,0,1,17,19.38l-.62.95A1.17,1.17,0,0,1,15,21ZM3.67,7.67l1-.62a2,2,0,0,1,2.85.73c.19.36.38.7.59,1a2,2,0,0,1-.51,2.68L4.94,13.31A13.21,13.21,0,0,1,3,9,1.17,1.17,0,0,1,3.67,7.67Z" style="fill: none; stroke: #2653ba; stroke-linecap: round; stroke-linejoin: round; stroke-width:1.7759999999999998;"/>
<path id="primary-2" data-name="primary" d="M4.94,13.31a17.72,17.72,0,0,0,2.58,3.17,17.72,17.72,0,0,0,3.17,2.58" style="fill: none; stroke: #2653ba; stroke-linecap: round; stroke-linejoin: round; stroke-width:1.7759999999999998;"/>
</g>
</svg>